<?xml version="1.0" encoding="utf-8"?>
<!-- Generator: Adobe Illustrator 23.0.3, SVG Export Plug-In . SVG Version: 6.00 Build 0)  -->
<svg version="1.1" xmlns="http://www.w3.org/2000/svg" xmlns:xlink="http://www.w3.org/1999/xlink" x="0px" y="0px"
	 viewBox="0 0 658.6 90.1" style="enable-background:new 0 0 658.6 90.1;" xml:space="preserve">
<style type="text/css">
	.st0{fill:#707070;}
	.st1{font-family:'Montserrat-Bold';}
	.st2{font-size:7.6605px;}
	.st3{fill:#FFFFFF;}
</style>
<g id="tekst">
	<text transform="matrix(1 0 0 1 0 87.565)" class="st0 st1 st2">Business model innovation</text>
	<text transform="matrix(1 0 0 1 128.1855 87.565)" class="st0 st1 st2">Costumer Experience</text>
	<text transform="matrix(1 0 0 1 233.3896 88.0762)" class="st0 st1 st2">Operational excellence.</text>
	<text transform="matrix(1 0 0 1 340.6362 88.0762)" class="st0 st1 st2">Environmental stewardship.</text>
	<text transform="matrix(1 0 0 1 478.5229 87.565)" class="st0 st1 st2">Worker health and safety.</text>
	<text transform="matrix(1 0 0 1 606.1987 87.565)" class="st0 st1 st2">Compliance.</text>
</g>
<g id="seks">
	<g>
		<path d="M641.5,13.4c-2.9,2.9-6.1,6.2-9.4,9.4c-0.1-1.1-0.2-2.5-0.3-4.1c-5.9,0.2-10.3,2.7-13.4,7.4c-3.9,5.8-3.3,11.7,1.8,19.9
			c-2.3,2.4-4.7,4.7-7.5,7.5c-1.7-2.6-3.6-5-4.9-7.7c-7.7-16.6,3-35.7,21.2-37.5c3.8-0.4,2.8-2.8,3.1-4.6
			C635.4,7.2,638.6,10.4,641.5,13.4z"/>
		<path d="M650.5,15.8c13.7,12.7,9.1,36.2-7.9,43.3c-2.5,1-5.2,1.7-7.9,2c-2,0.3-3.1,0.7-2.8,3c0.1,0.5-0.1,1.1-0.1,1.4
			c-3.2-3.2-6.5-6.5-9.6-9.6c2.9-2.9,6.1-6.1,9.5-9.5c0.1,1.3,0.2,2.6,0.3,3.9c3.8,1,9.7-1.8,12.8-6.1c4.6-6.3,4.2-12.7-1.7-21.6
			c1.2-0.9,2.7-1.9,4-3C648.3,18.5,649.3,17.1,650.5,15.8z"/>
	</g>
</g>
<g id="fem">
	<g>
		<path d="M514.1,37.6c0.4-6.3-0.5-13.1,7.7-15.5c-5.3-4.7-6.3-8.5-3-11.9c2.8-2.9,7.4-2.8,10,0.2c3.2,3.5,2.2,7.3-3.2,11.7
			c8.2,2.3,7.4,9,7.5,15.5c1.5-3.2,3.9-5.4,7.3-6.3c-4.7-3.3-5.9-5.8-4.8-9.2c0.9-2.8,3.5-4.7,6.4-4.7c3,0,5.7,1.9,6.6,4.8
			c1,3.4-0.2,5.9-4.7,9.1c6.4,1.9,7.7,6.7,7.4,12.5c-0.2,5.8,0,5.8-5.8,5.8c-15.5,0-31-0.1-46.5,0.1c-2.5,0-3.5-0.6-3.2-3.2
			c0.2-1.8,0-3.7,0-5.5c0.1-4.7,2.9-8.6,7-9.5c4.6-1,8.5,0.9,10.7,5.3C513.9,37,514,37.3,514.1,37.6z"/>
		<path d="M496.2,58.6c0-1.5,0-2.7,0-4.2c0.8-0.1,1.6-0.2,2.4-0.2c16.7,0,33.4,0,50.2,0c1.7,0,2.8,0.1,2.8,2.3
			c0,2.1-1.1,2.2-2.7,2.2c-16.8,0-33.6,0-50.4,0C497.8,58.8,497.2,58.7,496.2,58.6z"/>
		<path d="M505.2,30.9c-3.9,0-6.7-2.9-6.7-6.8c0-3.8,3.1-6.8,6.9-6.8c3.8,0,6.8,3,6.8,6.8C512.2,28,509.2,30.9,505.2,30.9z"/>
	</g>
</g>
<g id="fire">
	<g>
		<path d="M428.4,32.7c0,2.9,0.1,5.5-0.1,8c0,0.6-0.8,1.3-1.3,1.6c-5.3,2.7-10.7,5.4-16.1,8.1c-0.4,0.2-0.8,0.4-1.2,0.4
			c-7.5,0-15,0-22.6,0c0-6.1,0-12.1,0-18.3c4.8,0,9.5-0.3,14.2,0.1c3.5,0.3,5,4.4,2.9,7.2c-0.4,0.5-0.9,1-1.7,1.9
			c3.7-0.1,6.9,0.5,10.1-1.2c4.3-2.4,8.8-4.5,13.1-6.7C426.5,33.5,427.3,33.2,428.4,32.7z"/>
		<path d="M382.4,9.6c7.9-0.8,14.6,4.8,18.4,15.5c2.5-9.5,8.2-14.9,18.2-15.9c0,6.1-2.3,10.8-6.7,14.3c-6.2,4.9-13.1,5.6-20.1,1.9
			C386,22.3,382.9,16.8,382.4,9.6z"/>
		<path d="M373.3,32.6c3,0,5.8,0,9,0c0,2.2,0,4.3,0,6.5c0,3.2,0,6.5,0,9.7c0,1.5-0.4,2.1-2,2.1c-2.3-0.1-4.6,0-7.1,0
			C373.3,44.6,373.3,38.7,373.3,32.6z"/>
	</g>
</g>
<g id="tre">
	<g>
		<path d="M287.8,28.4c-1.1,1.2-2,2.2-3.1,3.3c-0.8-0.7-1.4-1.1-1.9-1.6c-1.8-1.7-4.3-1.9-6-0.1c-0.6,0.6-0.7,2-0.6,3
			c0.2,2.1-0.9,2.2-2.6,2.3c-1.7,0-2.4-0.4-2.4-2.2c0.1-2.9-1-4.1-3.9-4.5c-0.5-0.1-1.3,0.3-1.7,0.7c-0.8,0.9-1.4,1.9-2.1,3
			c-1.7-1.6-2.7-2.7-3.8-3.8c0.5-0.6,0.9-1.2,1.4-1.6c1.1-1.1,2.3-1.9,1.4-4c-0.9-2.1-1.9-3.2-4.2-2.8c-1.8,0.3-2.2-0.7-2.2-2.4
			c0-1.5,0.1-2.8,2.1-2.5c2.4,0.4,3.5-0.7,4.4-2.9c0.9-2.1-0.5-2.8-1.5-4c-0.4-0.4-0.7-0.9-1.3-1.6c1.1-1,2.2-2,3.4-3
			c2,0.5,2.5,3.9,5.9,2.4c3.2-1.4,1.8-3.8,2.5-6c0.7-0.1,1.5-0.1,2.3-0.2c1.6-0.2,2.4,0.4,2.4,2.2c-0.1,2.8,1.2,4.2,4,4.5
			c0.6,0.1,1.4-0.4,1.9-0.9c0.7-0.7,1.3-1.5,2.1-2.5c1.5,1.4,2.5,2.3,3.6,3.3c-0.5,2.3-3.9,2.8-2.6,6.2c1.4,3.5,4,1.8,6.1,2.7
			c0,1.3,0,2.7,0,4.2c-1.8,1.2-4.6-0.8-6,2.6C283.9,25.6,286.6,26.3,287.8,28.4z M273.9,12.5c-2.8-0.1-5.1,2.2-5.1,5
			c-0.1,2.8,2.1,5.1,4.9,5.2c2.8,0.1,5.1-2.2,5.2-5C278.9,15,276.7,12.6,273.9,12.5z"/>
		<path d="M311,25.1c-11.5,11.5-23.2,23.2-34.6,34.6c-6.4-6.4-13-13-19.7-19.7c1.4-1.3,3-2.7,4.8-4.3c4.7,4.9,9.6,9.9,14.7,15.2
			c10.3-10.5,20.3-20.5,30.4-30.7C308.3,22.1,309.7,23.7,311,25.1z"/>
		<path class="st3" d="M273.9,12.5c2.7,0.1,5,2.5,4.9,5.2c-0.1,2.8-2.4,5-5.2,5c-2.8-0.1-5-2.4-4.9-5.2
			C268.9,14.7,271.2,12.5,273.9,12.5z"/>
	</g>
</g>
<g id="to">
	<g>
		<path d="M132,31.5c2.9-3.9,5.5-7.3,8.4-11.3c2.9,3.8,5.5,7.4,8.5,11.4c-1.6,0.1-2.6,0.3-3.6,0.2c-1.6-0.1-2.1,0.6-1.9,2.1
			c0.6,5.6,2.8,10.6,7,14.9c0.6-0.9,1.1-1.6,1.5-2.3c3.9-6.6,11.5-9.8,19.1-8c7.3,1.7,12.9,8.1,13.5,15.5c0.6,7.4,0.6,7.4-6.8,7.4
			c-8.5,0-17-0.1-25.5,0c-2.1,0-3.2-0.4-2.9-2.7c0.4-2.2-0.6-3.7-2.2-5.2c-5.6-5-8.7-11.4-9.4-18.8c-0.2-2.6-1.1-3.4-3.5-3.1
			C133.8,31.9,133.2,31.7,132,31.5z"/>
		<path d="M202.1,32.3c-2.9,3.9-5.5,7.4-8.4,11.3c-2.9-3.9-5.5-7.4-8.4-11.2c1-0.2,1.5-0.4,1.9-0.4c4.2,0.3,3.7-1.1,3.2-3.9
			c-1.8-9.6-7.4-16.2-16.7-19c-9.5-2.8-17.7-0.1-24.5,7.2c-0.7,0.7-1.3,1.5-2.1,2.4c-1.1-1.4-2.2-2.5-2.8-3.8
			c-0.3-0.6,0.1-1.9,0.6-2.5c10.7-12.6,30.6-13.5,42.4-2c5,4.9,8.1,10.7,8.9,17.7c0.4,3.5-0.4,4,4,3.8
			C200.7,32,201.1,32.2,202.1,32.3z"/>
		<path d="M178.7,23c0,6.6-5.2,11.8-11.7,11.7c-6.4,0-11.6-5.2-11.7-11.6c-0.1-6.5,5.2-11.8,11.7-11.8
			C173.5,11.3,178.7,16.4,178.7,23z"/>
	</g>
</g>
<g id="et">
	<g>
		<path d="M59.9,47c0-2-0.1-4,0-6c0.1-1.4-0.5-1.9-1.9-1.9c-6,0-12,0-18,0c-1.4,0-2,0.5-1.9,1.9c0.1,2,0,3.9,0,6
			c-8.6-2.6-14.9-14.9-13.3-25.2C26.8,9.9,37.3,1,49.2,1.1c12.5,0.1,22.6,9.4,24.2,22.2C74.6,32.8,67.9,44.8,59.9,47z M49.1,31
			c1.9-3.8,3.5-7.1,5.2-10.6c-3.6,0-6.9,0-10.4,0C45.6,24,47.2,27.2,49.1,31z"/>
		<path d="M38.5,47.6c7.2,3.1,14.2,3.1,21.8-0.2c-0.3,4.3-0.1,7.9-0.9,11.4c-1.1,4.6-5.9,7.7-10.6,7.5c-5.1-0.2-9.5-3.7-10.2-8.6
			C38.1,54.5,38.5,51.2,38.5,47.6z"/>
		<path class="st3" d="M49.1,31c-1.9-3.8-3.5-7.1-5.2-10.6c3.6,0,6.8,0,10.4,0C52.6,23.9,51,27.2,49.1,31z"/>
	</g>
</g>
</svg>
